<svg width="526" height="509" viewBox="0 0 526 509" fill="none" xmlns="http://www.w3.org/2000/svg">
<path d="M263 351.057C357.413 351.057 433.95 344.449 433.95 336.296C433.95 328.144 357.413 321.535 263 321.535C168.587 321.535 92.05 328.144 92.05 336.296C92.05 344.449 168.587 351.057 263 351.057Z" fill="#1D2343"/>
<path d="M212.241 195.761H168.057V188.635C168.057 184.156 171.844 180.491 176.473 180.491H203.825C208.454 180.491 212.241 184.156 212.241 188.635V195.761Z" fill="#C1A7A7"/>
<path d="M212.241 195.761H168.057V188.635C168.057 184.156 171.844 180.491 176.473 180.491H203.825C208.454 180.491 212.241 184.156 212.241 188.635V195.761Z" stroke="#493B3B" stroke-width="6" stroke-miterlimit="10" stroke-linecap="round" stroke-linejoin="round"/>
<path d="M209.769 182.171V195.761" stroke="#87DFD6" stroke-width="4" stroke-miterlimit="10" stroke-linecap="round" stroke-linejoin="round"/>
<path d="M205.035 182.171V195.761" stroke="#87DFD6" stroke-width="4" stroke-miterlimit="10" stroke-linecap="round" stroke-linejoin="round"/>
<path d="M200.301 182.171V195.761" stroke="#87DFD6" stroke-width="4" stroke-miterlimit="10" stroke-linecap="round" stroke-linejoin="round"/>
<path d="M195.567 182.171V195.761" stroke="#87DFD6" stroke-width="4" stroke-miterlimit="10" stroke-linecap="round" stroke-linejoin="round"/>
<path d="M190.833 182.171V195.761" stroke="#87DFD6" stroke-width="4" stroke-miterlimit="10" stroke-linecap="round" stroke-linejoin="round"/>
<path d="M186.099 182.171V195.761" stroke="#87DFD6" stroke-width="4" stroke-miterlimit="10" stroke-linecap="round" stroke-linejoin="round"/>
<path d="M181.365 182.171V195.761" stroke="#87DFD6" stroke-width="4" stroke-miterlimit="10" stroke-linecap="round" stroke-linejoin="round"/>
<path d="M176.631 182.171V195.761" stroke="#87DFD6" stroke-width="4" stroke-miterlimit="10" stroke-linecap="round" stroke-linejoin="round"/>
<path d="M171.897 182.171V195.761" stroke="#87DFD6" stroke-width="4" stroke-miterlimit="10" stroke-linecap="round" stroke-linejoin="round"/>
<path d="M391.817 177.488H222.445C217.764 177.488 213.451 179.677 210.61 183.24C204.667 190.875 195.199 195.812 184.573 195.812H122.505V324.08C122.505 330.85 128.134 336.296 135.129 336.296H391.817C398.813 336.296 404.441 330.85 404.441 324.08V189.704C404.441 182.935 398.761 177.488 391.817 177.488Z" fill="#1D2343"/>
<path d="M137.759 218.056H122.505V321.942H137.759V218.056Z" fill="#1D2343"/>
<path d="M404.441 218.056H389.187V321.942H404.441V218.056Z" fill="#1D2343"/>
<path d="M205.193 313.493L231.65 302.193L221.446 279.848L194.988 291.148C188.624 293.897 185.731 301.073 188.518 307.232C191.359 313.442 198.828 316.191 205.193 313.493Z" fill="#E5D6D6"/>
<path d="M205.193 313.493L231.65 302.193L221.446 279.848L194.988 291.148C188.624 293.897 185.731 301.073 188.518 307.232C191.359 313.442 198.828 316.191 205.193 313.493Z" stroke="#493B3B" stroke-width="6" stroke-miterlimit="10" stroke-linecap="round" stroke-linejoin="round"/>
<path d="M200.09 309.625C204.274 309.625 207.665 306.343 207.665 302.295C207.665 298.247 204.274 294.966 200.09 294.966C195.907 294.966 192.516 298.247 192.516 302.295C192.516 306.343 195.907 309.625 200.09 309.625Z" fill="#EFE6E6"/>
<path d="M200.09 309.625C204.274 309.625 207.665 306.343 207.665 302.295C207.665 298.247 204.274 294.966 200.09 294.966C195.907 294.966 192.516 298.247 192.516 302.295C192.516 306.343 195.907 309.625 200.09 309.625Z" stroke="#493B3B" stroke-width="4" stroke-miterlimit="10" stroke-linecap="round" stroke-linejoin="round"/>
<path d="M122.505 321.943V324.029C122.505 330.799 128.134 336.245 135.129 336.245H391.817C398.813 336.245 404.441 330.799 404.441 324.029V321.943H122.505Z" fill="#BEEBE9"/>
<path d="M391.817 336.296H389.187V321.993H404.441V324.08C404.441 330.799 398.761 336.296 391.817 336.296Z" fill="#1D2343"/>
<path d="M135.129 336.296H137.759V321.993H122.505V324.08C122.505 330.799 128.134 336.296 135.129 336.296Z" fill="#1D2343"/>
<path d="M392.13 177.931H222.848C218.169 177.931 213.805 180.126 211.019 183.751C205.078 191.458 195.616 196.41 184.996 196.41H122.961V218.768H404.747V190.233C404.747 183.444 399.069 177.931 392.13 177.931Z" fill="#BEEBE9"/>
<path d="M137.759 196.27H122.505V218.056H137.759V196.27Z" fill="#BEEBE9"/>
<path d="M315.653 210.013H139.443C138.496 210.013 137.707 209.25 137.707 208.334C137.707 207.417 138.496 206.654 139.443 206.654H315.653C316.599 206.654 317.388 207.417 317.388 208.334C317.388 209.25 316.599 210.013 315.653 210.013Z" fill="#BEEBE9"/>
<path d="M391.765 177.336H389.135V218.056H404.389V189.552C404.389 182.833 398.761 177.336 391.765 177.336Z" fill="#BEEBE9"/>
<path d="M263.473 326.778C296.445 326.778 323.174 300.844 323.174 268.854C323.174 236.863 296.445 210.93 263.473 210.93C230.501 210.93 203.772 236.863 203.772 268.854C203.772 300.844 230.501 326.778 263.473 326.778Z" fill="#E5D6D6"/>
<path d="M263.473 315.173C289.909 315.173 311.339 294.435 311.339 268.854C311.339 243.273 289.909 222.535 263.473 222.535C237.038 222.535 215.607 243.273 215.607 268.854C215.607 294.435 237.038 315.173 263.473 315.173Z" fill="#1D2343"/>
<path d="M263.473 232.715C288.09 232.715 308.446 250.784 311.024 273.944C311.234 272.264 311.339 270.584 311.339 268.854C311.339 243.302 289.879 222.535 263.473 222.535C237.068 222.535 215.607 243.302 215.607 268.854C215.607 270.584 215.713 272.264 215.923 273.944C218.5 250.784 238.857 232.715 263.473 232.715Z" fill="#704848"/>
<path d="M391.817 177.488H222.445C217.764 177.488 213.451 179.677 210.61 183.24C204.667 190.875 195.199 195.812 184.573 195.812H122.505V324.08C122.505 330.85 128.134 336.296 135.129 336.296H391.817C398.813 336.296 404.441 330.85 404.441 324.08V189.704C404.441 182.935 398.761 177.488 391.817 177.488Z" stroke="#87DFD6" stroke-width="6" stroke-miterlimit="10" stroke-linecap="round" stroke-linejoin="round"/>
<path d="M263.473 321.026C293.25 321.026 317.388 297.668 317.388 268.854C317.388 240.04 293.25 216.681 263.473 216.681C233.697 216.681 209.558 240.04 209.558 268.854C209.558 297.668 233.697 321.026 263.473 321.026Z" stroke="#493B3B" stroke-width="3" stroke-miterlimit="10" stroke-linecap="round" stroke-linejoin="round"/>
<path d="M263.473 315.173C289.909 315.173 311.339 294.435 311.339 268.854C311.339 243.273 289.909 222.535 263.473 222.535C237.038 222.535 215.607 243.273 215.607 268.854C215.607 294.435 237.038 315.173 263.473 315.173Z" stroke="#493B3B" stroke-width="8" stroke-miterlimit="10" stroke-linecap="round" stroke-linejoin="round"/>
<path d="M263.473 300.412C281.484 300.412 296.085 286.283 296.085 268.854C296.085 251.425 281.484 237.296 263.473 237.296C245.462 237.296 230.861 251.425 230.861 268.854C230.861 286.283 245.462 300.412 263.473 300.412Z" fill="#1D2343"/>
<path d="M263.473 247.476C279.674 247.476 293.14 258.979 295.664 273.944C295.927 272.264 296.085 270.584 296.085 268.854C296.085 251.446 281.462 237.296 263.473 237.296C245.484 237.296 230.861 251.446 230.861 268.854C230.861 270.584 231.019 272.264 231.282 273.944C233.807 258.928 247.273 247.476 263.473 247.476Z" fill="#BEEBE9"/>
<path d="M282.692 271.872C284.414 261.605 277.209 251.932 266.599 250.265C255.989 248.599 245.993 255.571 244.271 265.838C242.549 276.105 249.754 285.779 260.364 287.445C270.974 289.112 280.971 282.139 282.692 271.872Z" fill="#1D2343"/>
<path d="M282.692 271.872C284.414 261.605 277.209 251.932 266.599 250.265C255.989 248.599 245.993 255.571 244.271 265.838C242.549 276.105 249.754 285.779 260.364 287.445C270.974 289.112 280.971 282.139 282.692 271.872Z" stroke="#BEEBE9" stroke-width="3" stroke-miterlimit="10" stroke-linecap="round" stroke-linejoin="round"/>
<path d="M275.683 270.772C276.777 264.251 272.2 258.107 265.462 257.048C258.723 255.99 252.374 260.418 251.28 266.939C250.186 273.46 254.763 279.604 261.501 280.663C268.24 281.721 274.589 277.293 275.683 270.772Z" fill="#1D2343"/>
<path d="M162.166 195.761H134.656V190.671C134.656 188.992 136.076 187.617 137.812 187.617H159.01C160.746 187.617 162.166 188.992 162.166 190.671V195.761Z" fill="#6A4949"/>
<path d="M162.166 195.761H134.656V190.671C134.656 188.992 136.076 187.617 137.812 187.617H159.01C160.746 187.617 162.166 188.992 162.166 190.671V195.761Z" stroke="#87DFD6" stroke-width="6" stroke-miterlimit="10" stroke-linecap="round" stroke-linejoin="round"/>
<path d="M157.905 181.56H138.969V187.617H157.905V181.56Z" stroke="#87DFD6" stroke-width="6" stroke-miterlimit="10" stroke-linecap="round" stroke-linejoin="round"/>
<path d="M157.905 181.56H138.969V187.617H157.905V181.56Z" fill="#1D2343"/>
<path d="M263.473 326.778C296.445 326.778 323.174 300.844 323.174 268.854C323.174 236.863 296.445 210.93 263.473 210.93C230.501 210.93 203.772 236.863 203.772 268.854C203.772 300.844 230.501 326.778 263.473 326.778Z" stroke="#87DFD6" stroke-width="8" stroke-miterlimit="10" stroke-linecap="round" stroke-linejoin="round"/>
<path opacity="0.38" d="M263.473 256.892C256.635 256.892 251.112 262.237 251.112 268.854C251.112 268.905 251.112 268.905 251.112 268.956C252.743 267.632 255.163 266.92 258.371 267.174C261.58 267.429 262.158 268.396 265.735 269.414C268.891 270.279 272.941 269.974 275.834 268.599C275.677 262.084 270.206 256.892 263.473 256.892Z" fill="white"/>
<path d="M263.473 307.538C285.551 307.538 303.449 290.218 303.449 268.854C303.449 247.489 285.551 230.17 263.473 230.17C241.395 230.17 223.497 247.489 223.497 268.854C223.497 290.218 241.395 307.538 263.473 307.538Z" stroke="#87DFD6" stroke-width="3" stroke-miterlimit="10" stroke-linecap="round" stroke-linejoin="round"/>
<path d="M263.473 315.173C289.909 315.173 311.339 294.435 311.339 268.854C311.339 243.273 289.909 222.535 263.473 222.535C237.038 222.535 215.607 243.273 215.607 268.854C215.607 294.435 237.038 315.173 263.473 315.173Z" stroke="#BEEBE9" stroke-width="8" stroke-miterlimit="10" stroke-linecap="round" stroke-linejoin="round"/>
<path d="M375.774 213.984H330.696C327.277 213.984 324.489 211.286 324.489 207.977V190.57C324.489 187.261 327.277 184.563 330.696 184.563H375.774C379.193 184.563 381.981 187.261 381.981 190.57V207.977C381.981 211.286 379.193 213.984 375.774 213.984Z" fill="#443636"/>
<path d="M375.774 213.984H330.696C327.277 213.984 324.489 211.286 324.489 207.977V190.57C324.489 187.261 327.277 184.563 330.696 184.563H375.774C379.193 184.563 381.981 187.261 381.981 190.57V207.977C381.981 211.286 379.193 213.984 375.774 213.984Z" stroke="#1D2343" stroke-width="4" stroke-miterlimit="10" stroke-linecap="round" stroke-linejoin="round"/>
<path d="M371.829 210.93H334.641C331.748 210.93 329.381 208.639 329.381 205.84V192.707C329.381 189.908 331.748 187.617 334.641 187.617H371.829C374.722 187.617 377.089 189.908 377.089 192.707V205.84C377.089 208.69 374.722 210.93 371.829 210.93Z" fill="#87DFD6"/>
<path opacity="0.38" d="M362.73 210.93L377.037 191.995C376.669 189.552 374.512 187.617 371.829 187.617H370.146L352.578 210.93H362.73Z" fill="white"/>
<path opacity="0.38" d="M348.738 210.93L366.306 187.617H363.203L345.635 210.93H348.738Z" fill="white"/>
</svg>
