<svg width="678" height="480" viewBox="0 0 678 480" fill="none" xmlns="http://www.w3.org/2000/svg">
<path fill-rule="evenodd" clip-rule="evenodd" d="M229.081 58.2902C232.528 70.9923 237.02 99.5438 232.436 104.022H203.436C203.433 103.971 203.43 103.92 203.427 103.868C192.679 102.679 184.319 93.5658 184.319 82.5V61.5C184.319 49.6259 193.945 40 205.819 40H207.819C218.602 40 227.531 47.9385 229.081 58.2902Z" fill="#303960"/>
<path fill-rule="evenodd" clip-rule="evenodd" d="M195.581 78.4901C190.973 73.0814 187.854 66.4529 188.376 59.0255C189.877 37.625 219.667 42.3328 225.462 53.1339C231.257 63.9351 230.568 91.333 223.079 93.2635C220.092 94.0333 213.73 92.1475 207.254 88.2443L211.319 117H187.319L195.581 78.4901Z" fill="#D4A181"/>
<path fill-rule="evenodd" clip-rule="evenodd" d="M202.069 74.8748C203.175 86.7528 202.732 100.317 199.436 103.537H170.436C168.82 75.4635 184.436 86.3349 184.436 59.9028C185.41 58.9515 186.33 58.01 187.24 57.1981L187.208 56.4207C192.229 46.1402 198.6 41 206.32 41C217.9 41 221.555 46.3883 224.667 50.9631C222.34 58.9482 213.309 60.1322 205.285 65.1095C204.339 64.341 203.132 63.8804 201.819 63.8804C198.781 63.8804 196.319 66.3428 196.319 69.3804C196.319 72.418 198.781 74.8804 201.819 74.8804C201.903 74.8804 201.986 74.8785 202.069 74.8748Z" fill="#303960"/>
<path fill-rule="evenodd" clip-rule="evenodd" d="M148.727 298.088C172.716 304.798 193.413 308.153 210.818 308.153C228.224 308.153 244.39 302.986 259.319 292.653C235.843 285.766 216.51 282.323 201.319 282.323C186.128 282.323 168.597 287.578 148.727 298.088Z" fill="#303960"/>
<path fill-rule="evenodd" clip-rule="evenodd" d="M231.586 317.824C231.354 317.477 231.159 317.098 231.004 316.689C227.797 308.208 176.436 216.726 171.319 200H229.145C233.035 212.717 250.546 292.52 253.01 308.442C260.785 333.557 276.794 414.895 278.838 420.53C280.988 426.458 268.891 432.633 265.667 425.346C260.538 413.75 248.317 381.665 242.876 362.074C237.774 343.708 233.621 327.184 231.586 317.824Z" fill="#D4A181"/>
<path fill-rule="evenodd" clip-rule="evenodd" d="M184.276 328.994C160.794 334.928 74.9028 345.658 69.0086 347.341C62.9452 349.072 57.6289 336.574 65.1235 333.867C77.0486 329.559 109.908 319.606 129.831 315.544C145.855 312.277 160.478 309.611 170.295 308.05C169.463 280.473 165.662 214.294 168.153 200H219.319C216.929 213.707 196.729 313.718 192.974 323.729C191.783 327.302 188.228 328.882 184.276 328.994Z" fill="#D4A181"/>
<path fill-rule="evenodd" clip-rule="evenodd" d="M65.6677 330.539C62.5323 329.956 60.2345 329.793 58.7744 330.05C56.9985 330.363 54.4592 331.116 51.1565 332.309C51.5198 334.369 54.7844 352.884 60.9506 387.854C65.977 388.456 68.4062 387.168 68.2384 383.991C68.0705 380.814 67.9585 378.17 67.9024 376.059L74.8595 348.213C74.9934 347.677 74.6675 347.134 74.1317 347C74.1225 346.998 74.1133 346.996 74.1041 346.994L69.786 346.044C67.9351 343.402 66.851 341.181 66.5336 339.381C66.2758 337.919 66.5103 335.795 67.2372 333.01L67.2372 333.01C67.5161 331.941 66.8758 330.849 65.8071 330.57C65.761 330.558 65.7145 330.548 65.6677 330.539Z" fill="#1D2343"/>
<path fill-rule="evenodd" clip-rule="evenodd" d="M261.997 424.402C260.878 427.388 260.319 429.623 260.319 431.106C260.319 432.909 260.619 435.54 261.22 439C263.312 439 282.113 439 317.622 439C319.088 434.154 318.241 431.539 315.084 431.152C311.926 430.766 309.302 430.417 307.214 430.106L280.999 418.419C280.494 418.194 279.903 418.421 279.678 418.925C279.674 418.934 279.671 418.942 279.667 418.951L277.982 423.039C275.059 424.403 272.683 425.085 270.855 425.085C269.37 425.085 267.32 424.485 264.703 423.285L264.703 423.285C263.699 422.825 262.512 423.266 262.052 424.27C262.032 424.313 262.014 424.357 261.997 424.402Z" fill="#1D2343"/>
<path fill-rule="evenodd" clip-rule="evenodd" d="M168.319 200C190.866 193.549 212.199 193.549 232.319 200C239.319 231.937 256.328 244.613 259.319 293.579C225.319 310.473 183.319 281.53 148.319 298.005C138.319 274.961 152.319 219.465 168.319 200Z" fill="#303960"/>
<path fill-rule="evenodd" clip-rule="evenodd" d="M265.319 160.311L304.802 154.925C312.7 150.532 319.966 147.558 326.599 146.003C328.466 145.948 331.436 146.627 327.012 150.315C322.588 154.003 318.099 158.083 318.887 160.051C319.676 162.02 323.79 161.287 324.471 164.315C324.926 166.333 318.249 166.661 304.44 165.299L272.403 178L265.319 160.311ZM141.289 169.45L163.186 169.532C139.175 223.566 126.655 251.857 125.627 254.406C123.313 260.14 128.209 268.874 130.303 273.567C123.483 276.619 124.21 265.317 115.607 269.319C107.754 272.973 101.78 279.592 92.7078 273.994C91.5924 273.306 90.3701 270.715 93.3234 268.69C100.681 263.645 111.284 254.815 112.717 251.908C114.67 247.945 124.194 220.459 141.289 169.45Z" fill="#D4A181"/>
<path fill-rule="evenodd" clip-rule="evenodd" d="M201.268 100L218.413 101.142C222.636 139.343 245.635 163.473 297.13 155.304L303.971 204.499C255.842 210.719 213.632 191.45 204.981 139.278C202.742 125.773 200.974 111.718 201.268 100Z" fill="#BEEBE9"/>
<path fill-rule="evenodd" clip-rule="evenodd" d="M192.81 95.0159L218.786 100.965C218.786 145.644 233.019 174.15 240.319 207H170.162C169.174 218.351 168.567 230.018 168.251 242H115.72C127.624 178.664 152.749 129.664 191.095 95H192.796L192.81 95.0159Z" fill="#BEEBE9"/>
<path fill-rule="evenodd" clip-rule="evenodd" d="M181.231 143.259C179.423 171.101 180.487 192.347 184.421 207H170.162C172.12 184.514 175.575 163.267 181.231 143.259V143.259Z" fill="black" fill-opacity="0.1"/>
<g clip-path="url(#clip0)">
<path d="M555.363 162.316C555.027 162.316 554.705 162.449 554.467 162.685C554.23 162.921 554.096 163.24 554.096 163.574V249.962C554.096 250.295 554.23 250.615 554.467 250.851C554.705 251.087 555.027 251.22 555.363 251.22H676.534C676.87 251.22 677.192 251.087 677.43 250.851C677.667 250.615 677.801 250.295 677.801 249.962V163.574C677.801 163.24 677.667 162.921 677.43 162.685C677.192 162.449 676.87 162.316 676.534 162.316H555.363Z" fill="#E6E6E6"/>
<path d="M669.842 170.042V231.436C669.842 231.846 669.679 232.238 669.387 232.528C669.095 232.818 668.7 232.98 668.288 232.98H563.36C563.286 232.981 563.213 232.975 563.14 232.961C562.77 232.909 562.431 232.727 562.186 232.446C561.941 232.166 561.805 231.807 561.805 231.436V170.042C561.805 169.633 561.969 169.24 562.26 168.95C562.552 168.661 562.947 168.498 563.36 168.498H668.288C668.7 168.498 669.095 168.661 669.387 168.95C669.679 169.24 669.842 169.633 669.842 170.042V170.042Z" fill="white"/>
<path d="M648.094 196.593C651.207 196.593 653.731 194.087 653.731 190.994C653.731 187.902 651.207 185.396 648.094 185.396C644.981 185.396 642.457 187.902 642.457 190.994C642.457 194.087 644.981 196.593 648.094 196.593Z" fill="#BEEBE9"/>
<path d="M557.717 167.266C558.743 167.266 559.575 166.439 559.575 165.42C559.575 164.401 558.743 163.574 557.717 163.574C556.69 163.574 555.858 164.401 555.858 165.42C555.858 166.439 556.69 167.266 557.717 167.266Z" fill="#3F3D56"/>
<path d="M673.932 167.266C674.959 167.266 675.791 166.439 675.791 165.42C675.791 164.401 674.959 163.574 673.932 163.574C672.906 163.574 672.074 164.401 672.074 165.42C672.074 166.439 672.906 167.266 673.932 167.266Z" fill="#3F3D56"/>
<path d="M557.717 249.962C558.743 249.962 559.575 249.135 559.575 248.116C559.575 247.096 558.743 246.27 557.717 246.27C556.69 246.27 555.858 247.096 555.858 248.116C555.858 249.135 556.69 249.962 557.717 249.962Z" fill="#3F3D56"/>
<path d="M673.932 249.962C674.959 249.962 675.791 249.135 675.791 248.116C675.791 247.096 674.959 246.27 673.932 246.27C672.906 246.27 672.074 247.096 672.074 248.116C672.074 249.135 672.906 249.962 673.932 249.962Z" fill="#3F3D56"/>
<path d="M596.376 212.973C600.111 212.973 603.139 209.966 603.139 206.256C603.139 202.546 600.111 199.539 596.376 199.539C592.64 199.539 589.612 202.546 589.612 206.256C589.612 209.966 592.64 212.973 596.376 212.973Z" fill="#303960"/>
<path d="M597.027 226.489H595.642L596.274 205.244L597.027 226.489Z" fill="#3F3D56"/>
<path d="M596.396 209.271L597.883 207.227L596.375 209.777L596.213 209.493L596.396 209.271Z" fill="#3F3D56"/>
<path d="M596.233 211.335L594.746 209.291L596.253 211.84L596.416 211.557L596.233 211.335Z" fill="#3F3D56"/>
<path d="M658.415 212.973C662.15 212.973 665.178 209.966 665.178 206.256C665.178 202.546 662.15 199.539 658.415 199.539C654.68 199.539 651.652 202.546 651.652 206.256C651.652 209.966 654.68 212.973 658.415 212.973Z" fill="#303960"/>
<path d="M659.066 226.489H657.681L658.313 205.244L659.066 226.489Z" fill="#3F3D56"/>
<path d="M658.435 209.271L659.922 207.227L658.415 209.777L658.252 209.493L658.435 209.271Z" fill="#3F3D56"/>
<path d="M658.272 211.335L656.785 209.291L658.292 211.84L658.456 211.557L658.272 211.335Z" fill="#3F3D56"/>
<path d="M615.967 210.317C621.484 210.317 625.956 205.876 625.956 200.396C625.956 194.917 621.484 190.475 615.967 190.475C610.451 190.475 605.979 194.917 605.979 200.396C605.979 205.876 610.451 210.317 615.967 210.317Z" fill="#303960"/>
<path d="M616.93 230.279H614.884L615.817 198.902L616.93 230.279Z" fill="#3F3D56"/>
<path d="M615.997 204.849L618.194 201.831L615.967 205.596L615.727 205.177L615.997 204.849Z" fill="#3F3D56"/>
<path d="M615.757 207.897L613.56 204.878L615.787 208.644L616.027 208.226L615.757 207.897Z" fill="#3F3D56"/>
<path d="M640.326 206.528C645.843 206.528 650.315 202.086 650.315 196.607C650.315 191.127 645.843 186.685 640.326 186.685C634.81 186.685 630.338 191.127 630.338 196.607C630.338 202.086 634.81 206.528 640.326 206.528Z" fill="#303960"/>
<path d="M641.289 226.489H639.243L640.176 195.112L641.289 226.489Z" fill="#3F3D56"/>
<path d="M640.356 201.059L642.552 198.041L640.326 201.806L640.086 201.388L640.356 201.059Z" fill="#3F3D56"/>
<path d="M640.116 204.107L637.919 201.089L640.146 204.854L640.386 204.436L640.116 204.107Z" fill="#3F3D56"/>
<path d="M577.145 206.528C582.662 206.528 587.134 202.086 587.134 196.607C587.134 191.127 582.662 186.685 577.145 186.685C571.628 186.685 567.156 191.127 567.156 196.607C567.156 202.086 571.628 206.528 577.145 206.528Z" fill="#303960"/>
<path d="M578.108 226.489H576.062L576.995 195.112L578.108 226.489Z" fill="#3F3D56"/>
<path d="M577.175 201.059L579.371 198.041L577.145 201.806L576.904 201.388L577.175 201.059Z" fill="#3F3D56"/>
<path d="M576.935 204.107L574.738 201.089L576.965 204.854L577.205 204.436L576.935 204.107Z" fill="#3F3D56"/>
<path d="M616.525 232.98H563.36C563.286 232.981 563.213 232.975 563.14 232.961C562.77 232.909 562.431 232.727 562.186 232.446C561.941 232.166 561.805 231.807 561.805 231.436V218.252C566.808 217.425 571.871 217.016 576.943 217.03C595.816 217.03 611.603 222.402 615.561 229.593C616.159 230.626 616.49 231.79 616.525 232.98V232.98Z" fill="#3F3D56"/>
<path d="M669.842 228.447V231.436C669.842 231.846 669.679 232.238 669.387 232.528C669.095 232.818 668.7 232.98 668.288 232.98H609.466C611.358 231.619 613.404 230.483 615.561 229.593C622.768 226.524 632.932 224.61 644.192 224.61C653.979 224.61 662.932 226.05 669.842 228.447Z" fill="#3F3D56"/>
<path d="M622.781 15C622.574 15.0003 622.37 15.0511 622.188 15.148L515.209 71.6679C514.913 71.8251 514.691 72.0926 514.593 72.4116C514.495 72.7306 514.529 73.0752 514.686 73.3699L555.531 149.639C555.689 149.933 555.959 150.153 556.28 150.251C556.601 150.348 556.948 150.315 557.245 150.159L664.224 93.639C664.52 93.4819 664.741 93.2145 664.84 92.8955C664.938 92.5765 664.904 92.2318 664.747 91.937L623.901 15.6682C623.823 15.522 623.717 15.3925 623.589 15.2874C623.46 15.1822 623.312 15.1034 623.153 15.0555C623.032 15.0188 622.907 15.0001 622.781 15V15Z" fill="#E6E6E6"/>
<path d="M619.934 25.0902L648.961 79.291C649.057 79.4702 649.117 79.6664 649.137 79.8685C649.156 80.0705 649.136 80.2745 649.076 80.4686C649.016 80.6627 648.919 80.8433 648.789 80.9999C648.659 81.1565 648.499 81.2862 648.318 81.3815L555.682 130.324C555.617 130.359 555.548 130.389 555.477 130.413C555.126 130.539 554.74 130.534 554.391 130.401C554.042 130.267 553.753 130.013 553.578 129.685L524.55 75.4842C524.454 75.3051 524.395 75.1088 524.375 74.9068C524.356 74.7047 524.376 74.5008 524.436 74.3067C524.496 74.1125 524.593 73.932 524.723 73.7754C524.853 73.6187 525.013 73.4891 525.194 73.3938L617.829 24.4515C618.01 24.3561 618.207 24.2969 618.411 24.2774C618.614 24.2579 618.82 24.2784 619.015 24.3377C619.21 24.397 619.392 24.494 619.55 24.6231C619.708 24.7522 619.838 24.9109 619.934 25.0902V25.0902Z" fill="white"/>
<path d="M558.018 95.5977C565.558 95.5977 571.671 89.5267 571.671 82.0378C571.671 74.5488 565.558 68.4778 558.018 68.4778C550.478 68.4778 544.366 74.5488 544.366 82.0378C544.366 89.5267 550.478 95.5977 558.018 95.5977Z" fill="#BEEBE9"/>
<path d="M615.573 98.9604L556.444 130.2C556.371 130.24 556.294 130.273 556.214 130.299L558.413 67.4122C558.423 67.0224 558.537 66.6422 558.744 66.3106C558.95 65.979 559.242 65.7078 559.588 65.5246C559.935 65.3415 560.324 65.253 560.716 65.2683C561.109 65.2835 561.49 65.4019 561.821 65.6114L597.881 87.9827L599.607 89.0526L615.573 98.9604Z" fill="#3F3D56"/>
<path opacity="0.2" d="M615.573 98.9606L595.385 109.626L597.638 90.093L597.8 88.6861L597.881 87.9826L599.607 89.0527L615.573 98.9606Z" fill="black"/>
<path d="M648.496 81.5664L597.354 108.586L599.607 89.0526L599.769 87.6458L602.704 62.1903C602.897 60.5219 604.893 59.3698 606.46 59.9107C606.565 59.9482 606.669 59.9923 606.769 60.0428L648.496 81.5664Z" fill="#3F3D56"/>
<path d="M518.755 75.1565C519.782 75.1565 520.614 74.3301 520.614 73.3107C520.614 72.2912 519.782 71.4648 518.755 71.4648C517.729 71.4648 516.897 72.2912 516.897 73.3107C516.897 74.3301 517.729 75.1565 518.755 75.1565Z" fill="#3F3D56"/>
<path d="M621.358 20.9483C622.385 20.9483 623.217 20.1218 623.217 19.1024C623.217 18.0829 622.385 17.2565 621.358 17.2565C620.332 17.2565 619.5 18.0829 619.5 19.1024C619.5 20.1218 620.332 20.9483 621.358 20.9483Z" fill="#3F3D56"/>
<path d="M557.856 148.166C558.882 148.166 559.714 147.34 559.714 146.32C559.714 145.301 558.882 144.474 557.856 144.474C556.829 144.474 555.997 145.301 555.997 146.32C555.997 147.34 556.829 148.166 557.856 148.166Z" fill="#3F3D56"/>
<path d="M660.459 93.9577C661.485 93.9577 662.317 93.1313 662.317 92.1118C662.317 91.0924 661.485 90.2659 660.459 90.2659C659.432 90.2659 658.6 91.0924 658.6 92.1118C658.6 93.1313 659.432 93.9577 660.459 93.9577Z" fill="#3F3D56"/>
<path d="M648.684 380.31C649.009 380.395 649.354 380.349 649.645 380.182C649.936 380.014 650.147 379.739 650.234 379.417L672.594 295.933C672.68 295.61 672.634 295.267 672.465 294.978C672.297 294.689 672.02 294.479 671.695 294.393L554.596 263.453C554.271 263.368 553.925 263.414 553.634 263.581C553.344 263.749 553.132 264.024 553.045 264.346L530.686 347.83C530.644 347.99 530.633 348.157 530.655 348.321C530.677 348.484 530.731 348.642 530.815 348.785C530.898 348.928 531.009 349.053 531.141 349.154C531.274 349.254 531.424 349.328 531.585 349.37L648.684 380.31Z" fill="#E6E6E6"/>
<path d="M663.228 300.151L647.338 359.482C647.232 359.878 646.972 360.215 646.615 360.421C646.258 360.626 645.834 360.683 645.436 360.577L544.034 333.785C543.963 333.768 543.894 333.743 543.827 333.711C543.483 333.566 543.203 333.303 543.038 332.97C542.874 332.636 542.836 332.255 542.931 331.896L558.822 272.565C558.928 272.17 559.188 271.832 559.545 271.626C559.901 271.421 560.326 271.365 560.724 271.47L662.125 298.262C662.524 298.367 662.864 298.625 663.071 298.98C663.278 299.334 663.334 299.755 663.228 300.151V300.151Z" fill="white"/>
<path d="M649.595 351.054L647.338 359.482C647.232 359.878 646.972 360.215 646.615 360.421C646.259 360.626 645.834 360.682 645.436 360.577L544.034 333.785C543.963 333.767 543.894 333.743 543.827 333.711C543.483 333.566 543.203 333.303 543.038 332.97C542.874 332.636 542.836 332.255 542.931 331.896L545.189 323.468L649.595 351.054Z" fill="#3F3D56"/>
<path d="M604.792 344.608L588.659 340.346L588.169 342.177L604.301 346.439L604.792 344.608Z" fill="#CCCCCC"/>
<path d="M567.688 334.805L551.556 330.542L551.065 332.373L567.197 336.636L567.688 334.805Z" fill="#CCCCCC"/>
<path d="M641.895 354.412L625.763 350.149L625.273 351.98L641.405 356.243L641.895 354.412Z" fill="#CCCCCC"/>
<path d="M556.067 268.901C557.094 268.901 557.926 268.074 557.926 267.055C557.926 266.035 557.094 265.209 556.067 265.209C555.041 265.209 554.209 266.035 554.209 267.055C554.209 268.074 555.041 268.901 556.067 268.901Z" fill="#3F3D56"/>
<path d="M668.377 298.575C669.404 298.575 670.236 297.748 670.236 296.729C670.236 295.709 669.404 294.883 668.377 294.883C667.351 294.883 666.519 295.709 666.519 296.729C666.519 297.748 667.351 298.575 668.377 298.575Z" fill="#3F3D56"/>
<path d="M534.663 348.817C535.69 348.817 536.522 347.991 536.522 346.971C536.522 345.952 535.69 345.125 534.663 345.125C533.637 345.125 532.805 345.952 532.805 346.971C532.805 347.991 533.637 348.817 534.663 348.817Z" fill="#3F3D56"/>
<path d="M646.973 378.491C648 378.491 648.832 377.665 648.832 376.645C648.832 375.626 648 374.799 646.973 374.799C645.947 374.799 645.115 375.626 645.115 376.645C645.115 377.665 645.947 378.491 646.973 378.491Z" fill="#3F3D56"/>
<path d="M624.659 347.209L633.624 349.583L634.003 348.17L625.039 345.796L624.659 347.209Z" fill="#3F3D56"/>
<path d="M560.126 328.985L561.862 329.898L632.157 348.512L633.181 347.216C634.956 344.997 636.075 342.333 636.413 339.52C636.651 337.419 636.43 335.211 634.941 333.883L637.349 312.42L598.471 302.073L580.193 310.153C580.193 310.153 573.128 308.151 567.995 311.9C566.129 313.306 564.732 315.237 563.986 317.442L563.17 319.883L560.126 328.985Z" fill="#303960"/>
<path d="M575.66 341.642C580.622 341.642 584.644 337.647 584.644 332.719C584.644 327.792 580.622 323.797 575.66 323.797C570.699 323.797 566.677 327.792 566.677 332.719C566.677 337.647 570.699 341.642 575.66 341.642Z" fill="#3F3D56"/>
<path d="M575.66 337.415C578.272 337.415 580.388 335.313 580.388 332.719C580.388 330.126 578.272 328.023 575.66 328.023C573.049 328.023 570.932 330.126 570.932 332.719C570.932 335.313 573.049 337.415 575.66 337.415Z" fill="#CCCCCC"/>
<path d="M618.492 352.983C623.453 352.983 627.475 348.988 627.475 344.061C627.475 339.133 623.453 335.138 618.492 335.138C613.531 335.138 609.509 339.133 609.509 344.061C609.509 348.988 613.531 352.983 618.492 352.983Z" fill="#3F3D56"/>
<path d="M618.492 348.757C621.103 348.757 623.22 346.654 623.22 344.061C623.22 341.467 621.103 339.365 618.492 339.365C615.881 339.365 613.764 341.467 613.764 344.061C613.764 346.654 615.881 348.757 618.492 348.757Z" fill="#CCCCCC"/>
<path d="M586.55 310.324L607.548 315.881L610.111 316.559L614.439 317.706L614.523 317.392L615.539 313.612L616.678 309.368L613.799 308.607L611.236 307.927L606.696 306.724L604.132 306.047L598.891 304.659L586.55 310.324Z" fill="white"/>
<path d="M617.855 318.611L628.953 321.55L629.535 319.387L630.547 315.608L631.192 313.213L629.567 312.783L627.004 312.103L620.091 310.273L617.855 318.611Z" fill="white"/>
<path d="M610.627 326.236L612.05 326.613L612.771 323.928L611.348 323.551L610.627 326.236Z" fill="#3F3D56"/>
<path d="M591.217 315.645L591.596 314.232L588.892 313.516L588.513 314.929L591.217 315.645Z" fill="#3F3D56"/>
<path d="M590.433 314.59L590.276 314.549C589.488 314.34 588.815 313.828 588.406 313.127C587.997 312.425 587.885 311.591 588.095 310.807V310.807C588.306 310.024 588.821 309.356 589.527 308.949C590.233 308.543 591.073 308.432 591.862 308.641L592.019 308.682L590.433 314.59Z" fill="#3F3D56"/>
<path d="M563.17 319.883C564.215 320.283 565.369 320.305 566.428 319.943C567.488 319.582 568.385 318.861 568.961 317.907C569.538 316.953 569.757 315.827 569.58 314.728C569.403 313.63 568.842 312.628 567.995 311.9C566.129 313.306 564.732 315.237 563.986 317.442L563.17 319.883Z" fill="#3F3D56"/>
<path d="M611.236 307.927L614.523 317.392L615.539 313.612L613.799 308.607L611.236 307.927Z" fill="#F2F2F2"/>
<path d="M627.004 312.103L629.535 319.387L630.547 315.607L629.567 312.783L627.004 312.103Z" fill="#F2F2F2"/>
<path d="M604.132 306.047L607.548 315.881L610.111 316.559L606.696 306.724L604.132 306.047Z" fill="#F2F2F2"/>
<path d="M336.086 162.001C339.247 162.001 341.809 159.456 341.809 156.317C341.809 153.177 339.247 150.632 336.086 150.632C332.925 150.632 330.362 153.177 330.362 156.317C330.362 159.456 332.925 162.001 336.086 162.001Z" fill="#303960"/>
<path opacity="0.2" d="M338.502 151.169C339.516 152.082 340.168 153.326 340.337 154.675C340.506 156.025 340.182 157.39 339.424 158.522C338.665 159.654 337.523 160.478 336.204 160.844C334.886 161.21 333.479 161.094 332.239 160.517C332.848 161.069 333.57 161.483 334.355 161.731C335.141 161.979 335.971 162.056 336.789 161.956C337.607 161.857 338.393 161.582 339.094 161.152C339.796 160.722 340.395 160.147 340.852 159.465C341.308 158.784 341.611 158.013 341.739 157.204C341.868 156.395 341.819 155.569 341.595 154.781C341.372 153.993 340.98 153.262 340.446 152.639C339.912 152.015 339.249 151.514 338.502 151.169V151.169Z" fill="black"/>
<path d="M483.223 168.16C490.994 168.16 497.293 165.615 497.293 162.475C497.293 159.336 490.994 156.79 483.223 156.79C475.453 156.79 469.153 159.336 469.153 162.475C469.153 165.615 475.453 168.16 483.223 168.16Z" fill="#3F3D56"/>
<path opacity="0.2" d="M483.223 156.79C482.74 156.79 482.263 156.8 481.793 156.82C488.891 157.109 494.432 159.531 494.432 162.475C494.432 165.42 488.891 167.841 481.793 168.131C482.263 168.15 482.74 168.16 483.223 168.16C490.994 168.16 497.293 165.615 497.293 162.475C497.293 159.336 490.994 156.79 483.223 156.79Z" fill="black"/>
<path d="M501.586 162.475H430.998V154.896C430.998 154.519 430.847 154.157 430.579 153.891C430.31 153.624 429.946 153.474 429.567 153.474H390.457C390.078 153.474 389.714 153.624 389.446 153.891C389.177 154.157 389.026 154.519 389.026 154.896V162.475H348.009V157.738C348.009 157.361 347.858 157 347.59 156.733C347.322 156.467 346.958 156.317 346.578 156.317H325.593C325.213 156.317 324.849 156.467 324.581 156.733C324.313 157 324.162 157.361 324.162 157.738V162.475H318.439C318.251 162.475 318.064 162.511 317.891 162.583C317.717 162.654 317.559 162.759 317.426 162.891C317.293 163.023 317.188 163.18 317.116 163.352C317.044 163.525 317.007 163.71 317.008 163.896V257.219C317.007 257.406 317.044 257.591 317.116 257.763C317.188 257.936 317.293 258.092 317.426 258.224C317.559 258.356 317.717 258.461 317.891 258.532C318.064 258.604 318.251 258.64 318.439 258.64H501.586C501.773 258.64 501.96 258.604 502.133 258.532C502.307 258.461 502.465 258.356 502.598 258.224C502.731 258.092 502.836 257.936 502.908 257.763C502.98 257.591 503.017 257.406 503.016 257.219V163.896C503.017 163.71 502.98 163.525 502.908 163.352C502.836 163.18 502.731 163.023 502.598 162.891C502.465 162.759 502.307 162.654 502.133 162.583C501.96 162.511 501.773 162.475 501.586 162.475V162.475Z" fill="#3F3D56"/>
<path opacity="0.2" d="M501.578 251.68H318.431C318.243 251.681 318.057 251.644 317.883 251.573C317.709 251.501 317.551 251.397 317.419 251.265C317.286 251.133 317.18 250.976 317.108 250.803C317.037 250.631 317 250.446 317 250.259V256.891C317 257.078 317.037 257.263 317.108 257.435C317.18 257.608 317.286 257.765 317.419 257.897C317.551 258.029 317.709 258.133 317.883 258.205C318.057 258.276 318.243 258.313 318.431 258.312H501.578C501.766 258.313 501.952 258.276 502.126 258.205C502.299 258.133 502.457 258.029 502.59 257.897C502.723 257.765 502.828 257.608 502.9 257.435C502.972 257.263 503.009 257.078 503.009 256.891V250.259C503.009 250.446 502.972 250.631 502.9 250.803C502.828 250.976 502.723 251.133 502.59 251.265C502.457 251.397 502.299 251.501 502.126 251.573C501.952 251.644 501.766 251.681 501.578 251.68Z" fill="black"/>
<path opacity="0.2" d="M503.016 206.057H317.008V224.059H503.016V206.057Z" fill="black"/>
<path opacity="0.2" d="M503.016 197.057H317.008V215.058H503.016V197.057Z" fill="black"/>
<path d="M503.016 201.32H317.008V219.321H503.016V201.32Z" fill="#303960"/>
<path d="M410.012 246.323C430.031 246.323 446.26 230.204 446.26 210.321C446.26 190.437 430.031 174.318 410.012 174.318C389.993 174.318 373.764 190.437 373.764 210.321C373.764 230.204 389.993 246.323 410.012 246.323Z" fill="#303960"/>
<path opacity="0.2" d="M437.933 187.362C442.544 195.165 444.028 204.407 442.089 213.247C440.151 222.088 434.932 229.879 427.471 235.07C420.01 240.262 410.855 242.473 401.827 241.263C392.8 240.053 384.562 235.512 378.753 228.542C381.286 232.83 384.686 236.55 388.739 239.468C392.791 242.386 397.408 244.439 402.299 245.497C407.189 246.555 412.248 246.596 417.155 245.617C422.062 244.637 426.712 242.659 430.811 239.806C434.911 236.954 438.371 233.289 440.974 229.042C443.577 224.796 445.266 220.06 445.935 215.133C446.604 210.206 446.238 205.195 444.861 200.416C443.484 195.636 441.125 191.192 437.933 187.362V187.362Z" fill="black"/>
<path d="M410.012 237.113C424.91 237.113 436.987 225.118 436.987 210.321C436.987 195.524 424.91 183.528 410.012 183.528C395.114 183.528 383.037 195.524 383.037 210.321C383.037 225.118 395.114 237.113 410.012 237.113Z" fill="#3F3D56"/>
<path d="M430.998 210.321C431.002 213.15 430.423 215.951 429.295 218.549C428.691 219.951 427.931 221.281 427.03 222.514C425.252 224.964 422.96 227 420.312 228.483C417.663 229.966 414.722 230.86 411.692 231.102C408.662 231.345 405.615 230.931 402.762 229.888C399.908 228.846 397.317 227.2 395.168 225.065C393.018 222.93 391.361 220.356 390.312 217.522C389.262 214.689 388.845 211.662 389.089 208.652C389.333 205.643 390.233 202.721 391.726 200.091C393.219 197.461 395.27 195.184 397.736 193.418C398.978 192.523 400.317 191.768 401.728 191.168C404.92 189.807 408.403 189.253 411.864 189.558C415.324 189.863 418.655 191.016 421.556 192.915C424.457 194.813 426.839 197.397 428.487 200.435C430.135 203.473 430.998 206.87 430.998 210.321V210.321Z" fill="white"/>
<path opacity="0.2" d="M430.774 207.284C429.991 201.984 427.182 197.189 422.929 193.894C424.772 196.76 425.881 200.03 426.159 203.419C426.437 206.809 425.877 210.214 424.526 213.338C423.922 214.74 423.162 216.07 422.26 217.303C420.609 219.579 418.512 221.499 416.096 222.95C413.679 224.401 410.993 225.352 408.197 225.746C405.401 226.141 402.554 225.971 399.827 225.246C397.099 224.521 394.547 223.257 392.323 221.528C394.163 224.397 396.683 226.775 399.662 228.454C402.641 230.133 405.989 231.062 409.413 231.159C412.837 231.256 416.233 230.519 419.304 229.012C422.374 227.505 425.027 225.274 427.03 222.514C427.931 221.281 428.691 219.951 429.295 218.549C430.828 215.003 431.34 211.103 430.774 207.284V207.284Z" fill="black"/>
</g>
<defs>
<clipPath id="clip0">
<rect x="317" y="15" width="360.801" height="365.352" rx="20" fill="white"/>
</clipPath>
</defs>
</svg>
